<svg version="1.2" xmlns="http://www.w3.org/2000/svg" viewBox="0 0 1555 565" width="1555" height="565">
	<title>orient_electric_logo_pdf-pdf-svg</title>
	<defs>
		<clipPath clipPathUnits="userSpaceOnUse" id="cp1">
			<path d="m-373.53-137.9h2334v1166.99h-2334z"/>
		</clipPath>
	</defs>
	<style>
		.s0 { fill: #ff601e } 
	</style>
	<g id="Clip-Path: Page 1" clip-path="url(#cp1)">
		<g id="Page 1">
			<path id="Path 2" class="s0" d="m512.5 405.5c-0.2 1.8-0.2 3.9-0.2 5.7-6.6 117.3-121.2 145.3-185.2 150.7-64 5.3-150.5-0.4-186.1-6.4-32.3-5.6-117.7-23.7-134.8-161.6-10.5-86.4-12.1-248 34.8-315.9 36.2-52.3 84.2-67.9 147.6-74.7 70.6-7.6 174.9 0 223.7 18.3 60.9 22.9 97.5 65.3 101.5 173.1 0.4 34.2 5.3 84.6-21.4 132.3-13 24.9-49.9 69.4-133.2 78.5v-212.9c0-24.9-15-38.9-38.7-38.9h-122.3c-24 0-38.7 14.9-38.7 38.9v174.2c0 25.1 14.7 38.9 38.7 38.9zm477.5-371.5h46.1v36.4h-46.1z"/>
			<path id="Path 3" fill-rule="evenodd" class="s0" d="m656.4 191c0-61.1 29.6-91.6 84.6-91.6 63.8 0 84.4 30.5 84.4 91.6 0 60.9-24.3 91.4-84.4 91.4-60.1 0-84.4-30.5-84.6-91.4zm84.6 56.4c38.3 0 38.5-19.1 38.5-57.2 0-37.1 1.4-52.5-38.5-52.5-38.3 0-38.7 15.4-38.7 52.5 0 38.1 1.8 57.2 38.7 57.2zm248.8-144.9h46.1v179.5h-46.1zm164.7-2.5c64 0 82.9 28.2 82.9 84.6q0 11.3-1.6 22.6h-120.8c0 33.2 5.1 35.6 54.9 36.9 18.5 0.4 35.6 0.2 55.2-0.4l-0.2 33.3c-16.1 3.5-34 4.9-56.8 4.9-71.3 0-99.2-17-99.2-93 0-59.3 25.7-88.9 85.6-88.9zm-39.5 72.4h77.8c-0.2-22.8-6.8-34.7-38.3-34.7-30.3 0-39.5 9.2-39.5 34.7zm153.5 109.8l0.2-167.4c39.7-10.5 75.7-13.2 88.9-11.9 44.1 4.1 66.5 23.7 66.5 68.5v110.8h-45.9v-108.7c0-20-10.1-29-30-30.1-11.2-0.4-26.6 0.6-33.8 2.5v136.3zm-300.9-181.8l-4.1 41.8c0 0-34.6-4.7-59.5 22.8v116.9h-0.2v0.3h-42.6v-0.3h-0.6v-175.7h37.8l5.6 24.5v1.2c16.7-19.3 37.9-33.8 63.6-31.5zm586.6 144.3l-0.4 32.7c-11.8 2.3-23.7 5.4-47.2 4.8-30.6 0-45.9-16.5-45.9-49.2v-164.3h38.9l6.2 31.3h42.6v36.4h-41.8v83.8c0 21 3.7 24.5 22.3 24.5v0.2c8.2 0 16.6 0 25.3-0.2zm-390.5 135.8c-4.1-1.2-26.1 1.1-32.3 9.7l0.2 9.1v62.5h-19.1v-96.9h13.6l3.9 10.1 4.9-5c8.9-7 19.8-9.4 30.5-7.6zm29-208.1q0 0.7 0 1.5z"/>
			<path id="Path 4" fill-rule="evenodd" class="s0" d="m657.2 410.8c0-33.9 14-49 46.5-49 33.2 0 45.9 12.6 44.7 46.5 0 3.5 0 6.8-0.4 9.9h-70.8v3.5c0.4 23.3 12.7 24.5 35.6 24.9 9.9 0.2 18.9-0.2 29.2-0.8v14.4c-8.6 1.5-18.3 2.1-30.2 2.3-38.1 0.4-54.6-11.1-54.6-51.7zm19.8-9.2h52.5v-1.9c0-13.4-4.4-22.2-25.8-22.2-18.5 0-25.3 5.1-26.7 22.2zm100-70.4h20.4v131.1h-20.4zm161.4 78.4c0-33.3 15.6-48.1 50.6-48.1 8.2 0 16.5 0.8 24.1 2.4v14.4l-22-1.2c-27.4 0-32.2 10.5-32.2 32.5 0 22.3 2.1 36.1 31.7 37.1 4.6 0.2 7.7 0 11.4 0 3.9-0.2 7.2-0.6 11.3-1l0.2 13.9c-7.8 1.7-16.3 2.5-24.5 2.5-35.4 0-50.6-15.6-50.6-52.5zm127.2 52.3l-2.5-0.2c-15.2-0.4-23.3-8.8-23.3-25.7v-93.5h16.9l3.5 18.6h24.5v14.8h-24.5v52.5c0 9.4-0.8 16 9.3 17.7 1.4 0.2 2.9 0.2 7.8 0.2 2.9 0 5.1-0.4 10.7-0.9v14.9c-5.4 1-11.9 1.8-22.4 1.6zm120.8-139.3h20.6v18.3h-20.6zm0 40.3h20.6v99h-20.6zm46.1 46.7c0-33.3 15.6-48.1 50.6-48.1 8.2 0 16.5 0.8 24.3 2.3v14.6l-22.2-1.3c-26.4-1-32.3 10.5-32.3 32.5 0 22.3 2.2 36.1 32.1 37.1 4.3 0.2 18.3-0.6 22.4-1l0.2 14c-7.8 1.6-16.3 2.4-24.5 2.4-35.4 0-50.6-15.6-50.6-52.5z"/>
			<path id="Path 5" fill-rule="evenodd" class="s0" d="m825 410.8c0-33.7 14.4-49 46.9-49 33.3 0 45.9 12.6 44.9 46.5q-0.4 5.3-0.7 9.9l-71 0.2v3.3c0 22.2 13 24.5 35.8 24.9 9.9 0.2 19-0.2 29.3-0.8v14.4c-8.7 1.5-18.4 2.1-30.3 2.3-38.1 0.4-54.9-11.1-54.9-51.7zm20.1-9.2h52.5v-1.9c0-13.4-4.3-22.2-25.7-22.2-20.4 0-26.2 5.9-26.8 22.2z"/>
		</g>
	</g>
</svg>