<svg xmlns="http://www.w3.org/2000/svg" height="800" width="1200" viewBox="-28.06305 -11.319175 243.2131 67.91505"><path clip-rule="evenodd" fill-rule="evenodd" d="M8.31 24.527l9.129.035v8.283H0V2.571h8.31zm13.587-13.638l-9.129-.072V2.571h17.474v30.274h-8.345z"/><path clip-rule="evenodd" fill-rule="evenodd" d="M11.626 10.853H9.558V0h2.068zm9.166 24.42h-2.033V24.456h2.033z"/><path stroke-miterlimit="2.6131" stroke-width=".216" stroke="#ED1C24" fill="#ED1C24" clip-rule="evenodd" fill-rule="evenodd" d="M48.002 34.167h-7.061V1.464h7.061zm52.247-24.099h6.99v2.392c2.354-2.249 3.78-2.784 7.382-2.999v5.462c-2.317.178-7.382 1.999-7.382 6.248v13.031h-6.99zm40.121 2.249l-.036-2.249h-7.025v24.134h7.025V19.243c-.106-2.178 6.1-5.676 6.17.5v14.459h7.062V17.565c-.001-7.105-6.42-9.746-13.196-5.248z"/><path d="M121.397 9.461c-1.392-.107-2.782-.107-4.065-.143v5.498c1.533-.071 2.96-.036 4.065.143 1.569.25 2.567.785 2.604 1.785v1.75c-.856-.536-1.712-.928-2.604-1.178-.678-.178-1.392-.25-2.14-.25-4.779 0-8.202 3.82-8.202 8.604 0 4.748 3.565 8.532 8.309 8.532.714 0 1.392-.035 2.033-.179.892-.179 1.747-.5 2.567-.999l.036 1.178h7.025V16.744c.001-5.677-4.849-6.962-9.628-7.283zm0 19.1c-1.962 0-3.566-1.57-3.566-3.534 0-1.964 1.604-3.57 3.566-3.57.963 0 1.854.393 2.496 1.035.643.643 1.035 1.535 1.035 2.535.001 1.964-1.569 3.534-3.531 3.534zm48.788-27.169l-.035 10.746c-1.177-.856-2.461-1.428-3.888-1.642-.392-.072-.82-.072-1.248-.072-5.599 0-10.164 5.213-10.164 11.604 0 6.391 4.565 11.603 10.164 11.603.428 0 .856-.036 1.248-.107 1.462-.285 2.817-.964 3.959-1.82l-.036 2.393h7.062V1.392zm-3.923 25.17c-2.604 0-4.708-2.214-4.708-4.927 0-2.678 2.104-4.892 4.708-4.892s4.743 2.214 4.743 4.892c0 2.713-2.14 4.927-4.743 4.927zm-92.831-2.714c.107-.643.143-1.249.143-1.856 0-7.033-5.314-12.781-11.84-12.817h-.071c-6.526 0-11.876 5.748-11.876 12.817 0 7.033 5.35 12.781 11.876 12.781h.071c4.993-.035 9.272-3.498 10.984-8.211H65.55c-.784.999-1.711 1.642-3.566 1.678h-.25c-1.783-.107-3.852-1.714-4.172-4.427h4.172zm-15.8-4.319c.464-2.82 1.819-4.07 4.102-4.213h.143c2.354-.143 3.566 1.606 3.958 4.177h-4.101zm33.31-9.461l-.036 2.571c-1.176-1.107-2.675-1.928-4.386-2.214-.392-.071-.82-.106-1.248-.106-5.92 0-10.735 5.212-10.735 11.603 0 6.354 4.814 11.567 10.735 11.567.428 0 .856 0 1.248-.036 1.64-.143 3.067-.643 4.422-1.642 1.141 3.284-1.462 6.961-4.422 6.747-1.177-.071-2.39-.749-3.423-2.284h-8.738c1.533 5.676 6.918 8.782 12.161 8.89 5.813.143 11.448-3.392 11.448-11.067V10.068zM86.519 27.24c-2.639 0-4.815-2.32-4.815-5.141s2.176-5.105 4.815-5.105c2.675 0 4.814 2.285 4.814 5.105 0 2.82-2.139 5.141-4.814 5.141z" fill="#ED1C24" clip-rule="evenodd" fill-rule="evenodd"/><path d="M90.905 12.639l.036-2.571h7.025v24.027m.001 0c0 14.602-20.364 14.173-23.609 2.178m0 0h8.738m0 0c3.708 5.426 9.415.106 7.846-4.463-1.712 1.249-3.46 1.678-5.67 1.678-5.92 0-10.735-5.213-10.735-11.567 0-6.39 4.814-11.603 10.735-11.603 2.21 0 4.173.928 5.634 2.321m-4.387 4.355c2.675 0 4.814 2.285 4.814 5.105 0 2.82-2.14 5.141-4.814 5.141-2.639 0-4.815-2.32-4.815-5.141s2.176-5.105 4.815-5.105" stroke-miterlimit="2.6131" stroke-width=".216" stroke="#ED1C24" fill="none"/><path d="M180.131 4.293c0-1.807 1.361-3.169 3.104-3.169 1.725 0 3.085 1.362 3.085 3.169 0 1.836-1.36 3.189-3.085 3.189-1.743 0-3.104-1.353-3.104-3.189zm3.104 3.825c2.076 0 3.852-1.615 3.852-3.824 0-2.19-1.775-3.805-3.852-3.805-2.097 0-3.87 1.615-3.87 3.805 0 2.209 1.774 3.824 3.87 3.824zm-.806-3.522h.767l1.159 1.907h.746l-1.25-1.937c.646-.081 1.139-.424 1.139-1.211 0-.868-.514-1.251-1.553-1.251h-1.673v4.399h.665zm0-.565V2.669h.907c.464 0 .958.101.958.646 0 .676-.505.717-1.068.717h-.797z" clip-rule="evenodd" fill-rule="evenodd"/></svg>